<?xml version="1.0" encoding="UTF-8"?>
<svg id="Livello_2" data-name="Livello 2" xmlns="http://www.w3.org/2000/svg" xmlns:xlink="http://www.w3.org/1999/xlink" viewBox="0 0 1266.88 693.02">
  <defs>
    <style>
      .cls-1 {
        fill: url(#Sfumatura_senza_nome_1221);
      }

      .cls-2 {
        fill: url(#Sfumatura_senza_nome_992);
      }

      .cls-3 {
        fill: url(#Sfumatura_senza_nome_241);
      }

      .cls-4 {
        fill: url(#Sfumatura_senza_nome_997);
      }

      .cls-5 {
        fill: #fff;
      }

      .cls-6 {
        fill: url(#Sfumatura_senza_nome_860);
      }

      .cls-7 {
        fill: url(#Sfumatura_senza_nome_1218);
      }

      .cls-8 {
        fill: url(#Sfumatura_senza_nome_908);
      }

      .cls-9 {
        fill: url(#Sfumatura_senza_nome_1226);
      }

      .cls-10 {
        fill: url(#Sfumatura_senza_nome_1215);
      }

      .cls-11 {
        fill: #3c3c3b;
        font-family: Domine-Bold, Domine;
        font-size: 187.56px;
        font-variation-settings: 'wght' 700;
        font-weight: 700;
      }

      .cls-12 {
        fill: url(#Sfumatura_senza_nome_821);
      }
    </style>
    <linearGradient id="Sfumatura_senza_nome_860" data-name="Sfumatura senza nome 860" x1="460.82" y1="329.59" x2="460.82" y2="415.62" gradientUnits="userSpaceOnUse">
      <stop offset="0" stop-color="#8fd0dc"/>
      <stop offset="1" stop-color="#fff"/>
    </linearGradient>
    <linearGradient id="Sfumatura_senza_nome_908" data-name="Sfumatura senza nome 908" x1="308.82" y1="365.29" x2="308.82" y2="504.79" gradientUnits="userSpaceOnUse">
      <stop offset="0" stop-color="#73c2cd"/>
      <stop offset="1" stop-color="#fff"/>
    </linearGradient>
    <linearGradient id="Sfumatura_senza_nome_997" data-name="Sfumatura senza nome 997" x1="308.82" y1="459.43" x2="308.82" y2="572.94" gradientUnits="userSpaceOnUse">
      <stop offset="0" stop-color="#189db3"/>
      <stop offset=".1" stop-color="#1e9fb5"/>
      <stop offset=".23" stop-color="#30a7ba"/>
      <stop offset=".39" stop-color="#4db3c4"/>
      <stop offset=".56" stop-color="#75c4d1"/>
      <stop offset=".74" stop-color="#a9dae3"/>
      <stop offset=".94" stop-color="#e8f5f7"/>
      <stop offset="1" stop-color="#fff"/>
    </linearGradient>
    <linearGradient id="Sfumatura_senza_nome_992" data-name="Sfumatura senza nome 992" x1="308.81" y1="549.38" x2="308.81" y2="675.48" gradientUnits="userSpaceOnUse">
      <stop offset="0" stop-color="#1c8791"/>
      <stop offset=".15" stop-color="#1f8892"/>
      <stop offset=".28" stop-color="#2a8e98"/>
      <stop offset=".41" stop-color="#3c98a0"/>
      <stop offset=".54" stop-color="#56a6ad"/>
      <stop offset=".66" stop-color="#78b7bd"/>
      <stop offset=".78" stop-color="#a1cdd1"/>
      <stop offset=".9" stop-color="#d0e6e8"/>
      <stop offset="1" stop-color="#fff"/>
    </linearGradient>
    <linearGradient id="Sfumatura_senza_nome_1221" data-name="Sfumatura senza nome 1221" x1=".86" y1="67.92" x2="142.49" y2="209.55" gradientUnits="userSpaceOnUse">
      <stop offset="0" stop-color="#9eccc2"/>
      <stop offset=".02" stop-color="#a1cdc3"/>
      <stop offset=".2" stop-color="#c2dfd9"/>
      <stop offset=".39" stop-color="#ddede9"/>
      <stop offset=".58" stop-color="#f0f7f5"/>
      <stop offset=".78" stop-color="#fbfdfc"/>
      <stop offset="1" stop-color="#fff"/>
    </linearGradient>
    <linearGradient id="Sfumatura_senza_nome_1226" data-name="Sfumatura senza nome 1226" x1="626.37" y1="103.84" x2="490.28" y2="182.42" gradientUnits="userSpaceOnUse">
      <stop offset="0" stop-color="#9eccc2"/>
      <stop offset=".12" stop-color="#b1d6ce"/>
      <stop offset=".37" stop-color="#d3e7e3"/>
      <stop offset=".6" stop-color="#ebf4f2"/>
      <stop offset=".82" stop-color="#f9fcfb"/>
      <stop offset="1" stop-color="#fff"/>
    </linearGradient>
    <linearGradient id="Sfumatura_senza_nome_1215" data-name="Sfumatura senza nome 1215" x1="111" y1="94.47" x2="253.86" y2="237.33" gradientUnits="userSpaceOnUse">
      <stop offset="0" stop-color="#c1dfd6"/>
      <stop offset=".23" stop-color="#d9ebe6"/>
      <stop offset=".49" stop-color="#eef6f4"/>
      <stop offset=".75" stop-color="#fafcfc"/>
      <stop offset="1" stop-color="#fff"/>
    </linearGradient>
    <linearGradient id="Sfumatura_senza_nome_1218" data-name="Sfumatura senza nome 1218" x1="441.93" y1="17.54" x2="441.93" y2="331.96" gradientUnits="userSpaceOnUse">
      <stop offset="0" stop-color="#c1dfd6"/>
      <stop offset=".05" stop-color="#c5e1d9"/>
      <stop offset=".44" stop-color="#e4f1ed"/>
      <stop offset=".77" stop-color="#f8fbfa"/>
      <stop offset="1" stop-color="#fff"/>
    </linearGradient>
    <linearGradient id="Sfumatura_senza_nome_241" data-name="Sfumatura senza nome 241" x1="309.61" y1="29.97" x2="309.61" y2="231.05" gradientUnits="userSpaceOnUse">
      <stop offset="0" stop-color="#ffef26"/>
      <stop offset=".02" stop-color="#fee921"/>
      <stop offset=".1" stop-color="#fdd70e"/>
      <stop offset=".19" stop-color="#fdcb03"/>
      <stop offset=".28" stop-color="#fdc800"/>
      <stop offset=".67" stop-color="#f18f34"/>
      <stop offset=".89" stop-color="#e95f32"/>
      <stop offset="1" stop-color="#e3312d"/>
    </linearGradient>
    <linearGradient id="Sfumatura_senza_nome_821" data-name="Sfumatura senza nome 821" x1="300.73" y1="201.11" x2="300.73" y2="378.52" gradientUnits="userSpaceOnUse">
      <stop offset="0" stop-color="#fedaa1"/>
      <stop offset="1" stop-color="#fff"/>
    </linearGradient>
  </defs>
  <g id="Livello_8" data-name="Livello 8">
    <g>
      <text class="cls-11" transform="translate(677.19 197.86)"><tspan x="0" y="0">The </tspan><tspan x="0" y="225.07">Rising</tspan><tspan x="0" y="450.15">Sun</tspan></text>
      <g>
        <path class="cls-5" d="M617.63,50.09v594.18c-7,46.22-39.62,47-39.62,47,0,0-140.9,1.74-278.58,1.74-120.56,0-238.62-1.33-257.48-6.37C1.57,675.85,0,646.57,0,646.57V50.09C5.45,9.26,45.83,0,45.83,0h526.73c37.31,6.94,45.07,50.09,45.07,50.09Z"/>
        <g>
          <path class="cls-6" d="M595.14,415.54c-38.88-.62-78.08-3.92-116.5-9.78-40.43-6.17-80.79-15.32-119.94-27.18l-37.3-11.3,38.94,1.51c3.93.15,7.96.27,11.98.36,6.2.13,13.51.27,21.86.27,63.59,0,120.62-9.04,174.37-27.64,8.22-2.84,16.56-5.99,24.78-9.37l6.9-2.83v86.03l-5.08-.08Z"/>
          <path class="cls-5" d="M595.23,337.05v73.49c-34.18-.55-73.18-3.21-115.82-9.73-45.09-6.89-85.08-16.67-119.25-27.02,2.36.09,6.68.25,12.07.36,6.34.13,13.71.27,21.97.27,41.36,0,105.24-3.43,176-27.91,5.48-1.89,14.28-5.05,25.04-9.47M605.23,322.14l-13.79,5.66c-8.13,3.33-16.38,6.45-24.51,9.27-53.21,18.41-109.71,27.36-172.73,27.36-8.3,0-15.59-.14-21.76-.27-3.98-.08-7.98-.2-11.89-.35l-77.88-3.03,74.59,22.59c39.38,11.93,79.97,21.12,120.64,27.33,38.65,5.9,78.07,9.21,117.17,9.84l10.16.16v-98.57h0Z"/>
        </g>
        <g>
          <path class="cls-8" d="M34.88,504.79c-4.15,0-8.37-.03-12.54-.08l-4.93-.07v-116.7l3.52-1.09c46.24-14.31,93.25-21.56,139.74-21.56,6.68,0,13.45.15,20.12.45,44.14,1.98,76.97,10.02,90.99,13.46l1.31.32c80.65,19.71,189.14,34.22,322.47,43.15l4.67.31v44.62l-5.96-1.17c-55.53-10.88-108.45-16.4-157.27-16.4s-94.36,5.5-136.1,16.33c-4.17,1.08-8.71,2.32-13.52,3.64-16.25,4.44-36.46,9.97-65.45,15.88-61.61,12.55-124.54,18.92-187.03,18.92Z"/>
          <path class="cls-5" d="M160.67,370.29c6.51,0,13.14.14,19.89.44,45.07,2.02,78.01,10.38,91.34,13.64,61.04,14.91,159.4,32.31,323.33,43.28v33.86c-60.91-11.94-113.36-16.49-158.24-16.49-57.53,0-102.65,7.48-137.36,16.49-17.88,4.64-41.05,11.78-78.72,19.45-75.85,15.45-140.45,18.82-186.04,18.82-4.33,0-8.49-.03-12.47-.08v-108.08c33.05-10.23,80.78-21.34,138.26-21.34M160.68,360.29v10-10c-47,0-94.52,7.33-141.23,21.79l-7.04,2.18v125.32l9.87.13c4.19.06,8.43.08,12.6.08,62.83,0,126.1-6.4,188.03-19.02,29.16-5.94,49.47-11.49,65.78-15.95,4.79-1.31,9.32-2.55,13.45-3.62,41.34-10.73,86.71-16.17,134.85-16.17,48.51,0,101.1,5.49,156.31,16.31l11.92,2.34v-55.37l-9.33-.62c-133.05-8.91-241.25-23.38-321.62-43.02l-1.31-.32c-14.16-3.47-47.32-11.6-91.95-13.6-6.74-.3-13.58-.45-20.33-.45h0Z"/>
        </g>
        <g>
          <path class="cls-4" d="M61.95,572.94c-13.03,0-26.38-.17-39.67-.5l-4.87-.12v-41.6l5.02.02c1.43,0,2.86,0,4.27,0,71.34,0,140.9-7.96,206.74-23.65,30.22-7.2,53.56-14.55,74.16-21.04,30.88-9.72,57.54-18.12,96.42-23.01,19.06-2.4,38.55-3.61,57.91-3.61,44.33,0,89.63,6.36,134.63,18.89l3.66,1.02v70.76l-6.24-1.59c-34.31-8.77-69.51-14.29-104.62-16.43-11.05-.67-22.25-1.01-33.3-1.01-60.48,0-107.08,10.02-134.92,16.01-2.1.45-4.09.88-5.98,1.28-76.85,16.31-162.04,24.58-253.21,24.58Z"/>
          <path class="cls-5" d="M461.93,464.43c54.08,0,99.96,9.42,133.29,18.71v60.52c-24.14-6.17-60.68-13.85-105.56-16.57-11.62-.71-22.84-1.02-33.6-1.02-65.56,0-114.78,11.64-141.94,17.4-57.73,12.25-140.69,24.47-252.17,24.47-12.81,0-25.98-.16-39.54-.5v-31.7c1.43,0,2.87,0,4.3,0,89.33,0,159.53-12.26,207.9-23.79,74.82-17.83,105.33-35.81,170.04-43.95,19.92-2.51,39.07-3.57,57.29-3.57M461.94,454.43c-19.57,0-39.27,1.23-58.54,3.65-39.32,4.95-66.19,13.41-97.29,23.2-20.52,6.46-43.77,13.78-73.82,20.95-65.47,15.6-134.63,23.51-205.58,23.51-1.41,0-2.83,0-4.25,0l-10.04-.04v51.5l9.75.24c13.34.34,26.73.5,39.79.5,91.52,0,177.06-8.31,254.25-24.69,1.89-.4,3.9-.83,6-1.29,27.65-5.95,73.92-15.9,133.87-15.9,10.95,0,22.06.34,33,1,34.8,2.11,69.68,7.59,103.69,16.28l12.48,3.19v-81l-7.32-2.04c-45.44-12.66-91.19-19.07-135.97-19.07h0Z"/>
        </g>
        <g>
          <path class="cls-2" d="M300.11,675.48c-144.25,0-225.03-2.06-240.1-6.13-40.48-10.91-42.53-40.77-42.6-42.04v-.13s0-45.55,0-45.55l5.07.07c8.16.12,16.42.18,24.57.18,75.79,0,151.26-5.31,224.32-15.79,14.55-2.09,25.55-3.89,35.26-5.47,13.62-2.23,25.39-4.15,41.96-6.07,29.44-3.43,59.43-5.17,89.15-5.17,52.29,0,105.61,5.4,158.48,16.04l4.01.81v59.06l-.06.37c-3.63,24.13-14.5,35.94-22.98,41.59-9.47,6.32-18.22,6.6-18.59,6.6-1.37.02-132.23,1.63-258.5,1.63Z"/>
          <path class="cls-5" d="M437.73,554.38c59.81,0,112.95,6.97,157.5,15.94v54.59c-6.49,43.21-36.74,43.94-36.74,43.94,0,0-130.68,1.63-258.38,1.63-111.81,0-221.32-1.24-238.8-5.96-37.45-10.09-38.91-37.47-38.91-37.47v-40.34c8.32.12,16.54.18,24.64.18,89.38,0,165.03-7.24,225.03-15.84,34.9-5.01,48.81-8.24,77.09-11.53,30.86-3.6,60.46-5.14,88.58-5.14M437.74,544.38v10-10c-29.92,0-60.11,1.75-89.74,5.21-16.68,1.94-28.49,3.87-42.18,6.1-9.69,1.58-20.67,3.38-35.17,5.46-72.82,10.45-148.05,15.74-223.61,15.74-8.11,0-16.35-.06-24.49-.18l-10.15-.15v51.02c.09,1.41,2.36,34.76,46.31,46.6,5.77,1.56,23.36,6.3,241.4,6.3,126.29,0,257.19-1.61,258.5-1.63h.06s.06,0,.06,0c1.07-.03,10.76-.45,21.24-7.44,9.32-6.22,21.25-19.07,25.15-45.01l.11-.74v-63.53l-8.03-1.62c-53.2-10.71-106.85-16.14-159.46-16.14h0Z"/>
        </g>
        <g>
          <path class="cls-1" d="M17.4,69.04l.04-.33c2.26-17.04,10.99-31.29,25.26-41.19,10.66-7.4,20.66-9.77,21.08-9.86l.56-.13h114.66l-13.09,9.1c-23.96,16.66-57.01,46.52-78.37,94.14-29.34,65.35-15.53,123.77-10.33,145.76l1.58,6.71-5.68.57c-.33.04-3.31.42-3.9.51l-.17.03c-15.13,2.2-29.53,11.54-42.78,27.76l-8.87,10.86V69.04Z"/>
          <path class="cls-5" d="M163.05,22.54c-18.04,12.55-56.08,42.7-80.08,96.2-30.59,68.14-15.15,129.78-10.36,150.11-.24.02-4.04.51-4.28.56-12.89,1.87-29.08,8.92-45.94,29.55V69.37c5.06-38.18,42.51-46.84,42.51-46.84h98.15M194.95,12.54H63.77l-1.11.26c-1.15.27-11.56,2.82-22.81,10.63-15.45,10.72-24.91,26.16-27.36,44.64l-.09.65v258.28l17.74-21.71c12.44-15.22,25.78-23.97,39.63-25.98l.27-.04h.03c.73-.11,3.1-.42,3.62-.48l11.28-1.13-2.62-11.11-.27-1.16c-5.09-21.54-18.62-78.76,10.02-142.56,20.9-46.58,53.22-75.79,76.67-92.09l26.19-18.21h0Z"/>
        </g>
        <g>
          <path class="cls-9" d="M591.93,302.12c-13.26-16.22-27.65-25.56-42.78-27.76l-.13-.02-.13-.03s-5.89-.58-5.89-.58l1.25-5.56c6.76-28.69,13.99-85.98-13.58-147.38-21.36-47.62-54.41-77.48-78.37-94.14l-13.09-9.1h114.66l.56.13c.42.1,10.42,2.47,21.08,9.86,14.26,9.9,23,24.14,25.26,41.19l.04.33v243.93l-8.87-10.86Z"/>
          <path class="cls-5" d="M553.29,22.54s37.45,8.66,42.51,46.84v229.58c-16.85-20.62-33.05-27.67-45.94-29.55-.24-.05-.51-.07-.75-.1,4.79-20.33,16.71-82.44-13.89-150.58-24-53.5-62.03-83.65-80.08-96.2h98.15M554.43,12.54h-131.18l26.19,18.21c23.44,16.3,55.77,45.51,76.66,92.08,26.96,60.06,19.89,116.12,13.28,144.19l-2.62,11.1,11.35,1.14h.05s0,0,0,0l.27.04c13.85,2.01,27.19,10.75,39.63,25.98l17.74,21.71V68.71l-.09-.65c-2.45-18.48-11.91-33.91-27.36-44.64-11.25-7.81-21.66-10.36-22.81-10.63l-1.11-.26h0Z"/>
        </g>
        <g>
          <path class="cls-10" d="M117.17,328.11c-15.8-24.48-24.86-49.68-29.4-81.69-7.42-52.36,5.77-105.23,39.19-157.14,24.79-38.51,52.84-63.74,60.85-70.55l1.4-1.19h73.69l-19.4,9.49c-22.27,10.89-52.7,31.45-71.25,67.51-30.06,58.45-19.5,130.58,27.56,188.25l3.86,4.73-84.02,44.45-2.49-3.85Z"/>
          <path class="cls-5" d="M241.31,22.54c-17.59,8.61-52.61,29.11-73.49,69.71-30.57,59.43-21.31,133.1,28.13,193.7-24.86,13.15-49.72,26.3-74.57,39.45-13.33-20.66-23.7-44.78-28.65-79.68C75.44,123.72,179.74,32.16,191.05,22.54h50.26M284.5,12.54h-97.13l-2.8,2.38c-8.14,6.93-36.65,32.56-61.82,71.65-15.01,23.32-26.17,47.33-33.15,71.37-8.66,29.8-10.94,59.8-6.78,89.18,4.64,32.76,13.94,58.57,30.15,83.69l4.97,7.71,8.11-4.29,59.66-31.56,14.92-7.89,10.79-5.71-7.71-9.46c-45.78-56.11-56.12-126.15-26.99-182.8,17.92-34.84,47.41-54.74,69-65.3l38.8-18.98h0Z"/>
        </g>
        <g>
          <path class="cls-7" d="M412.59,287.52l3.86-4.73c47.06-57.67,57.62-129.81,27.56-188.25-18.54-36.06-48.98-56.61-71.24-67.51l-19.4-9.49h73.69l1.4,1.19c8.01,6.81,36.06,32.04,60.85,70.55,33.42,51.91,46.61,104.78,39.19,157.14-4.53,32.01-13.6,57.2-29.4,81.69l-2.49,3.85-84.02-44.45Z"/>
          <path class="cls-5" d="M425.22,22.54c11.31,9.63,115.61,101.18,98.33,223.18-4.94,34.89-15.32,59.02-28.65,79.68-24.86-13.15-49.72-26.3-74.57-39.45,49.44-60.6,58.7-134.27,28.13-193.7-20.88-40.6-55.9-61.1-73.49-69.71h50.26M428.9,12.54h-97.13l38.8,18.98c21.59,10.56,51.08,30.46,69,65.3,29.13,56.65,18.79,126.7-26.99,182.8l-7.71,9.46,10.79,5.71,42.61,22.54,31.96,16.91,8.11,4.29,4.97-7.71c16.21-25.12,25.5-50.93,30.15-83.69,4.16-29.38,1.88-59.38-6.78-89.18-6.99-24.03-18.14-48.05-33.15-71.37-25.17-39.09-53.68-64.73-61.81-71.65l-2.8-2.38h0Z"/>
        </g>
        <g>
          <path class="cls-3" d="M175.8,226.58c-17.11-59.21-2.92-119.73,37.01-157.93,38.48-36.81,86.47-38.67,95.69-38.67h.33c60.41.27,98.78,41.6,109.1,54.26,48.51,59.51,29.23,132.81,26.87,140.97l-1.28,4.43-4.52-.92c-41.2-8.37-83.39-12.61-125.4-12.61-2.33,0-4.67.01-7.03.04-41.9.47-83.93,5.16-124.92,13.94l-4.56.98-1.29-4.48Z"/>
          <path class="cls-5" d="M308.51,34.97c.11,0,.21,0,.3,0,60.94.27,98.06,43.61,105.24,52.42,47.29,58.01,27.92,129.55,25.94,136.42-34.07-6.92-76.9-12.71-126.4-12.71-2.34,0-4.71.01-7.08.04-49.21.55-91.83,6.75-125.91,14.05-16.36-56.63-3.14-115.81,35.67-152.93,37.85-36.21,85.25-37.29,92.24-37.29M308.51,24.97c-9.56,0-59.29,1.93-99.15,40.06-20.37,19.48-34.67,45.12-41.35,74.13-6.58,28.55-5.54,59.25,2.99,88.8l2.59,8.96,9.11-1.95c40.67-8.71,82.36-13.37,123.93-13.83,2.32-.03,4.66-.04,6.97-.04,41.68,0,83.54,4.21,124.41,12.51l9.04,1.84,2.56-8.86c1.6-5.52,6.74-25.59,5.9-52.12-.5-15.82-3.07-31.07-7.64-45.3-5.66-17.65-14.43-33.82-26.05-48.09-5.46-6.69-17.21-19.67-34.63-31.39-24.19-16.27-50.54-24.58-78.32-24.71h-.35Z"/>
        </g>
        <g>
          <path class="cls-12" d="M12.41,319.51l3.64-3c54.02-44.55,113.88-76.9,177.92-96.16,25.28-7.6,63.48-19.09,115.67-19.24h1.03c72.43,0,127.53,22.52,157.13,34.61,37.89,15.48,74.01,35.89,107.34,60.66l13.93,10.35-15.93,6.86c-53.55,23.06-108.24,37.48-162.55,42.85-16.21,1.6-31.84,2.38-47.79,2.38-26.77,0-50.02-2.17-74.63-4.46-25.37-2.37-51.6-4.81-82.89-4.81-13.76,0-27.35.46-41.55,1.41-46.69,3.12-93.32,11.18-138.6,23.96l-12.72,3.59v-59.01Z"/>
          <path class="cls-5" d="M310.66,211.11c69.05,0,120.86,20.59,153.35,33.87,27.53,11.25,64.94,29.55,105.16,59.43-66.09,28.46-121.46,38.32-159.58,42.08-16.92,1.67-32.32,2.33-46.81,2.33-54.31,0-95.94-9.27-157.51-9.27-13.07,0-27.03.42-42.22,1.43-60.61,4.04-109.42,15.5-140.65,24.32v-41.08c68.98-56.89,134.56-82.31,174.44-94.3,26.26-7.9,63.1-18.67,112.82-18.81.33,0,.67,0,1,0M310.66,191.11v20-20s-1.06,0-1.06,0c-53.64.15-92.68,11.89-118.51,19.66-65.32,19.64-126.35,52.62-181.41,98.02l-7.27,6v76.94l25.44-7.18c44.6-12.6,90.54-20.54,136.54-23.61,13.99-.93,27.36-1.39,40.89-1.39,30.82,0,56.82,2.42,81.96,4.77,24.85,2.32,48.32,4.5,75.55,4.5,16.28,0,32.24-.8,48.78-2.43,55.34-5.47,111.03-20.15,165.52-43.62l31.87-13.73-27.85-20.7c-34.01-25.27-70.86-46.09-109.52-61.89-30.24-12.36-86.53-35.36-160.91-35.36h0Z"/>
        </g>
        <path class="cls-5" d="M571.79,8c12.59,2.55,22.71,10.35,30.11,23.2,5.12,8.89,7.22,17.41,7.73,19.71v592.76c-5.92,37.48-30.19,39.52-31.84,39.62-4.97.06-144.08,1.74-278.36,1.74-192.26,0-245.01-3.32-255.41-6.1-32.62-8.72-35.77-30.3-36.02-32.69V50.64c2.02-14.18,9.11-25.62,21.05-34.01,7.84-5.51,15.45-7.96,17.82-8.63h524.92M572.56,0H45.83S5.45,9.26,0,50.09v596.47s1.57,29.29,41.95,40.08c18.85,5.05,136.92,6.37,257.48,6.37,137.68,0,278.58-1.74,278.58-1.74,0,0,32.62-.78,39.62-47V50.09s-7.76-43.15-45.07-50.09h0Z"/>
      </g>
    </g>
  </g>
</svg>